<svg width="160" height="160" viewBox="0 0 160 160" fill="none" xmlns="http://www.w3.org/2000/svg">
<path d="M71.3397 35C75.1887 28.3333 84.8113 28.3333 88.6603 35L123.301 95C127.15 101.667 122.339 110 114.641 110H45.359C37.661 110 32.8497 101.667 36.6987 95L71.3397 35Z" stroke="white" stroke-width="10"/>
<path d="M75.6699 67.5C77.5944 64.1667 82.4056 64.1667 84.3301 67.5L92.9904 82.5C94.9149 85.8333 92.5093 90 88.6603 90H71.3398C67.4908 90 65.0851 85.8333 67.0096 82.5L75.6699 67.5Z" fill="white" stroke="white" stroke-width="10"/>
<rect x="5" y="5" width="150" height="150" rx="10" stroke="white" stroke-width="10"/>
<circle cx="80" cy="80" r="75" stroke="white" stroke-width="10"/>
</svg>
